<svg width="516" height="401" viewBox="0 0 516 401" fill="none" xmlns="http://www.w3.org/2000/svg">
<g id="Group 2">
<g id="Cloud" filter="url(#filter0_di)">
<path d="M388.755 134.541C382.905 134.541 377.066 135.127 371.333 136.283C367.01 114.705 353.032 96.2992 333.412 86.3366C313.787 76.3739 290.679 75.956 270.707 85.2001C252.632 35.4141 197.621 9.70881 147.835 27.783C98.0491 45.861 72.3438 100.872 90.4179 150.658C46.8064 152.037 12.3569 188.131 13.0091 231.762C13.6652 275.389 49.1848 310.432 92.8197 310.502H388.755C437.342 310.502 476.736 271.112 476.736 222.522C476.736 173.931 437.342 134.541 388.755 134.541V134.541Z" fill="#D4D5D6"/>
</g>
<g id="Water drop" filter="url(#filter1_i)">
<path d="M168.042 307.789C162.729 324.639 140.656 335.329 123.803 330.015C106.953 324.702 94.0617 302.988 99.3743 286.139C106.589 263.255 159.129 217.973 159.129 217.973C159.129 217.973 175.257 284.906 168.042 307.789Z" fill="#8EC8F7"/>
</g>
<g id="Water drop_2" filter="url(#filter2_i)">
<path d="M380.042 317.789C374.729 334.639 352.656 345.329 335.803 340.015C318.953 334.702 306.062 312.988 311.374 296.139C318.589 273.255 371.129 227.973 371.129 227.973C371.129 227.973 387.257 294.906 380.042 317.789Z" fill="#8EC8F7"/>
</g>
<g id="Water drop_3" filter="url(#filter3_i)">
<path d="M264.042 367.789C258.729 384.639 236.656 395.329 219.803 390.015C202.953 384.702 190.062 362.988 195.374 346.139C202.589 323.255 255.129 277.973 255.129 277.973C255.129 277.973 271.257 344.906 264.042 367.789Z" fill="#8EC8F7"/>
</g>
</g>
<defs>
<filter id="filter0_di" x="0" y="0" width="515.736" height="340.502" filterUnits="userSpaceOnUse" color-interpolation-filters="sRGB">
<feFlood flood-opacity="0" result="BackgroundImageFix"/>
<feColorMatrix in="SourceAlpha" type="matrix" values="0 0 0 0 0 0 0 0 0 0 0 0 0 0 0 0 0 0 127 0" result="hardAlpha"/>
<feOffset dx="13" dy="4"/>
<feGaussianBlur stdDeviation="13"/>
<feComposite in2="hardAlpha" operator="out"/>
<feColorMatrix type="matrix" values="0 0 0 0 0 0 0 0 0 0 0 0 0 0 0 0 0 0 0.25 0"/>
<feBlend mode="normal" in2="BackgroundImageFix" result="effect1_dropShadow"/>
<feBlend mode="normal" in="SourceGraphic" in2="effect1_dropShadow" result="shape"/>
<feColorMatrix in="SourceAlpha" type="matrix" values="0 0 0 0 0 0 0 0 0 0 0 0 0 0 0 0 0 0 127 0" result="hardAlpha"/>
<feOffset dx="11" dy="-1"/>
<feGaussianBlur stdDeviation="11"/>
<feComposite in2="hardAlpha" operator="arithmetic" k2="-1" k3="1"/>
<feColorMatrix type="matrix" values="0 0 0 0 0 0 0 0 0 0 0 0 0 0 0 0 0 0 0.38 0"/>
<feBlend mode="normal" in2="shape" result="effect2_innerShadow"/>
</filter>
<filter id="filter1_i" x="89" y="204" width="107.994" height="136.693" filterUnits="userSpaceOnUse" color-interpolation-filters="sRGB">
<feFlood flood-opacity="0" result="BackgroundImageFix"/>
<feBlend mode="normal" in="SourceGraphic" in2="BackgroundImageFix" result="shape"/>
<feColorMatrix in="SourceAlpha" type="matrix" values="0 0 0 0 0 0 0 0 0 0 0 0 0 0 0 0 0 0 127 0" result="hardAlpha"/>
<feOffset dx="4" dy="-3"/>
<feGaussianBlur stdDeviation="10"/>
<feComposite in2="hardAlpha" operator="arithmetic" k2="-1" k3="1"/>
<feColorMatrix type="matrix" values="0 0 0 0 0 0 0 0 0 0.362667 0 0 0 0 0.566667 0 0 0 0.57 0"/>
<feBlend mode="normal" in2="shape" result="effect1_innerShadow"/>
</filter>
<filter id="filter2_i" x="301" y="214" width="107.994" height="136.693" filterUnits="userSpaceOnUse" color-interpolation-filters="sRGB">
<feFlood flood-opacity="0" result="BackgroundImageFix"/>
<feBlend mode="normal" in="SourceGraphic" in2="BackgroundImageFix" result="shape"/>
<feColorMatrix in="SourceAlpha" type="matrix" values="0 0 0 0 0 0 0 0 0 0 0 0 0 0 0 0 0 0 127 0" result="hardAlpha"/>
<feOffset dx="4" dy="-3"/>
<feGaussianBlur stdDeviation="10"/>
<feComposite in2="hardAlpha" operator="arithmetic" k2="-1" k3="1"/>
<feColorMatrix type="matrix" values="0 0 0 0 0 0 0 0 0 0.362667 0 0 0 0 0.566667 0 0 0 0.57 0"/>
<feBlend mode="normal" in2="shape" result="effect1_innerShadow"/>
</filter>
<filter id="filter3_i" x="185" y="264" width="107.994" height="136.693" filterUnits="userSpaceOnUse" color-interpolation-filters="sRGB">
<feFlood flood-opacity="0" result="BackgroundImageFix"/>
<feBlend mode="normal" in="SourceGraphic" in2="BackgroundImageFix" result="shape"/>
<feColorMatrix in="SourceAlpha" type="matrix" values="0 0 0 0 0 0 0 0 0 0 0 0 0 0 0 0 0 0 127 0" result="hardAlpha"/>
<feOffset dx="4" dy="-3"/>
<feGaussianBlur stdDeviation="10"/>
<feComposite in2="hardAlpha" operator="arithmetic" k2="-1" k3="1"/>
<feColorMatrix type="matrix" values="0 0 0 0 0 0 0 0 0 0.362667 0 0 0 0 0.566667 0 0 0 0.57 0"/>
<feBlend mode="normal" in2="shape" result="effect1_innerShadow"/>
</filter>
</defs>
</svg>
