<svg width="519" height="640" viewBox="0 0 519 640" fill="none" xmlns="http://www.w3.org/2000/svg">
<g id="Group 2">
<g id="Moon" filter="url(#filter0_i)">
<path d="M450.246 253.48C376.968 252.683 318.226 195.983 319 126.799C319.407 73.5071 354.018 25.7818 406.497 6.15918C388.176 1.48962 369.217 -0.541446 350.253 0.122921C249.044 1.19066 167.905 79.5054 169.011 175.061C167.905 270.616 249.044 348.931 350.253 349.998C426.854 350.33 494.974 304.062 519 235.385C498.563 247.875 474.578 254.192 450.246 253.48Z" fill="#FFE96C"/>
</g>
<g id="Cloud Secondary" filter="url(#filter1_i)">
<path d="M405.139 260.707C398.831 260.707 392.536 261.34 386.355 262.591C381.693 239.256 366.623 219.351 345.468 208.577C324.309 197.802 299.393 197.351 277.859 207.348C258.372 153.507 199.058 125.708 145.379 145.254C91.6999 164.804 63.9845 224.296 83.472 278.137C36.4501 279.628 -0.693381 318.662 0.00982185 365.846C0.717236 413.027 39.0144 450.924 86.0617 451H405.139C457.526 451 500 408.402 500 355.853C500 303.305 457.526 260.707 405.139 260.707V260.707Z" fill="#AAAAAA"/>
</g>
<g id="Water drop" filter="url(#filter2_i)">
<path d="M353.042 478.789C347.729 495.639 325.656 506.329 308.803 501.015C291.953 495.702 279.062 473.988 284.374 457.139C291.589 434.255 344.129 388.973 344.129 388.973C344.129 388.973 360.257 455.906 353.042 478.789Z" fill="#8EC8F7"/>
</g>
<g id="Thunder" filter="url(#filter3_i)">
<path d="M118.517 599.2C116.553 605.868 125.603 609.981 129.334 604.117L217.094 466.204C219.636 462.21 216.766 456.983 212.032 456.983H170.002C165.248 456.983 162.382 451.718 164.963 447.726L216.978 367.257C219.559 363.265 216.693 358 211.939 358H154.886C152.512 358 150.361 359.4 149.4 361.571L96.7313 480.546C94.9753 484.513 97.8796 488.975 102.218 488.975H142.959C146.966 488.975 149.846 492.826 148.715 496.67L118.517 599.2Z" fill="#FFCF54"/>
</g>
</g>
<defs>
<filter id="filter0_i" x="169" y="-13" width="367" height="363" filterUnits="userSpaceOnUse" color-interpolation-filters="sRGB">
<feFlood flood-opacity="0" result="BackgroundImageFix"/>
<feBlend mode="normal" in="SourceGraphic" in2="BackgroundImageFix" result="shape"/>
<feColorMatrix in="SourceAlpha" type="matrix" values="0 0 0 0 0 0 0 0 0 0 0 0 0 0 0 0 0 0 127 0" result="hardAlpha"/>
<feOffset dx="17" dy="-13"/>
<feGaussianBlur stdDeviation="11"/>
<feComposite in2="hardAlpha" operator="arithmetic" k2="-1" k3="1"/>
<feColorMatrix type="matrix" values="0 0 0 0 0.116667 0 0 0 0 0.105 0 0 0 0 0 0 0 0 0.24 0"/>
<feBlend mode="normal" in2="shape" result="effect1_innerShadow"/>
</filter>
<filter id="filter1_i" x="0" y="133" width="508" height="318" filterUnits="userSpaceOnUse" color-interpolation-filters="sRGB">
<feFlood flood-opacity="0" result="BackgroundImageFix"/>
<feBlend mode="normal" in="SourceGraphic" in2="BackgroundImageFix" result="shape"/>
<feColorMatrix in="SourceAlpha" type="matrix" values="0 0 0 0 0 0 0 0 0 0 0 0 0 0 0 0 0 0 127 0" result="hardAlpha"/>
<feOffset dx="8" dy="-6"/>
<feGaussianBlur stdDeviation="18"/>
<feComposite in2="hardAlpha" operator="arithmetic" k2="-1" k3="1"/>
<feColorMatrix type="matrix" values="0 0 0 0 0 0 0 0 0 0 0 0 0 0 0 0 0 0 0.5 0"/>
<feBlend mode="normal" in2="shape" result="effect1_innerShadow"/>
</filter>
<filter id="filter2_i" x="274" y="375" width="107.994" height="136.693" filterUnits="userSpaceOnUse" color-interpolation-filters="sRGB">
<feFlood flood-opacity="0" result="BackgroundImageFix"/>
<feBlend mode="normal" in="SourceGraphic" in2="BackgroundImageFix" result="shape"/>
<feColorMatrix in="SourceAlpha" type="matrix" values="0 0 0 0 0 0 0 0 0 0 0 0 0 0 0 0 0 0 127 0" result="hardAlpha"/>
<feOffset dx="4" dy="-3"/>
<feGaussianBlur stdDeviation="10"/>
<feComposite in2="hardAlpha" operator="arithmetic" k2="-1" k3="1"/>
<feColorMatrix type="matrix" values="0 0 0 0 0 0 0 0 0 0.362667 0 0 0 0 0.566667 0 0 0 0.57 0"/>
<feBlend mode="normal" in2="shape" result="effect1_innerShadow"/>
</filter>
<filter id="filter3_i" x="96.2111" y="354" width="125.831" height="252.93" filterUnits="userSpaceOnUse" color-interpolation-filters="sRGB">
<feFlood flood-opacity="0" result="BackgroundImageFix"/>
<feBlend mode="normal" in="SourceGraphic" in2="BackgroundImageFix" result="shape"/>
<feColorMatrix in="SourceAlpha" type="matrix" values="0 0 0 0 0 0 0 0 0 0 0 0 0 0 0 0 0 0 127 0" result="hardAlpha"/>
<feOffset dx="4" dy="-4"/>
<feGaussianBlur stdDeviation="6.5"/>
<feComposite in2="hardAlpha" operator="arithmetic" k2="-1" k3="1"/>
<feColorMatrix type="matrix" values="0 0 0 0 0.545833 0 0 0 0 0.176486 0 0 0 0 0.0181944 0 0 0 0.58 0"/>
<feBlend mode="normal" in2="shape" result="effect1_innerShadow"/>
</filter>
</defs>
</svg>
