<svg id="Layer_1" enable-background="new 0 0 256 256" height="512" viewBox="0 0 256 256" width="512" xmlns="http://www.w3.org/2000/svg"><path d="m198.515 81.386h-1.337c-1.048-21.156-18.533-37.988-39.949-37.988-4.614 0-9.041.791-13.165 2.228-5.106-17.743-21.449-30.728-40.835-30.728-23.472 0-42.5 19.028-42.5 42.5 0 1.664.106 3.303.292 4.917-23.298 3.043-41.292 22.955-41.292 47.083 0 26.234 21.266 47.5 47.5 47.5h131.286c20.852 0 37.756-16.904 37.756-37.756 0-20.852-16.904-37.756-37.756-37.756z" fill="#e0ebfc"/><path d="m198.516 158.899h-131.287c-27.294 0-49.5-22.206-49.5-49.5 0-24.121 17.546-44.757 41.123-48.779-.082-1.097-.123-2.175-.123-3.221 0-24.538 19.963-44.5 44.5-44.5 19.032 0 36.072 12.321 42.142 30.208 3.849-1.134 7.829-1.708 11.858-1.708 21.775 0 39.786 16.538 41.811 37.991 21.681.282 39.232 18.006 39.232 39.753-.001 21.921-17.834 39.756-39.756 39.756zm-95.287-142c-22.332 0-40.5 18.168-40.5 40.5 0 1.522.091 3.056.279 4.688.124 1.085-.645 2.07-1.729 2.212-22.548 2.945-39.551 22.333-39.551 45.1 0 25.089 20.411 45.5 45.5 45.5h131.287c19.716 0 35.756-16.04 35.756-35.756s-16.04-35.756-35.756-35.756h-1.338c-1.066 0-1.944-.836-1.997-1.901-1.004-20.235-17.674-36.086-37.952-36.086-4.27 0-8.478.712-12.506 2.117-.519.181-1.089.141-1.577-.112-.488-.252-.851-.695-1.003-1.223-4.962-17.242-20.964-29.283-38.913-29.283z" fill="#3762cc"/><path d="m127.453 184.296c-1.728 0-3.134-1.406-3.134-3.134v-7.247l-1.51 1.898c-.598.752-1.493 1.183-2.454 1.183-.705 0-1.397-.242-1.95-.681-1.353-1.076-1.578-3.052-.502-4.404l6.416-8.066v-5.192l-2.447 2.393c-.831.812-1.928 1.265-3.089 1.275l-.455.004c-2.478 0-4.484-1.984-4.512-4.423l-.03-2.702-3.801 3.801-1.166 10.24c-.18 1.584-1.518 2.78-3.112 2.78-.118 0-.237-.007-.357-.02-.832-.095-1.577-.508-2.098-1.163s-.756-1.474-.661-2.306l.275-2.41-5.125 5.125c-.591.592-1.378.918-2.216.918-.837 0-1.624-.326-2.216-.918-1.222-1.222-1.222-3.21 0-4.432l5.124-5.124-2.41.275c-.121.014-.239.02-.357.02-1.594 0-2.932-1.195-3.113-2.78-.195-1.717 1.043-3.273 2.759-3.469l10.24-1.166 3.802-3.802-2.701-.03c-2.46-.028-4.444-2.051-4.423-4.511l.004-.456c.01-1.159.461-2.256 1.273-3.087l2.395-2.449h-5.192l-8.065 6.416c-.553.439-1.245.681-1.95.681-.961 0-1.856-.431-2.454-1.183-.521-.655-.756-1.474-.661-2.306s.508-1.577 1.163-2.098l1.898-1.51h-7.251c-1.728 0-3.134-1.406-3.134-3.134s1.406-3.134 3.134-3.134h7.247l-1.898-1.51c-1.353-1.076-1.578-3.052-.502-4.404.598-.752 1.493-1.183 2.454-1.183.705 0 1.398.242 1.95.682l8.065 6.416h5.295l-2.271-2.321c-1.245-1.272-1.61-3.158-.928-4.803.694-1.674 2.302-2.768 4.097-2.787l3.042-.033-3.617-3.617-10.24-1.167c-.831-.095-1.577-.508-2.097-1.163-.521-.655-.756-1.474-.661-2.306.18-1.584 1.518-2.779 3.112-2.779.117 0 .237.007.356.02l2.41.275-5.124-5.124c-.592-.592-.918-1.379-.918-2.216s.326-1.624.918-2.216c.591-.591 1.378-.918 2.216-.918s1.625.326 2.216.918l5.124 5.124-.275-2.41c-.195-1.717 1.043-3.273 2.76-3.469.12-.014.239-.02.357-.02 1.595 0 2.932 1.195 3.112 2.781l1.166 10.239 3.723 3.723.04-3.604c.014-1.163.47-2.259 1.284-3.086l.319-.324c.846-.861 1.979-1.335 3.19-1.335 1.177 0 2.288.452 3.127 1.273l1.878 1.836v-5.194l-6.416-8.066c-1.076-1.352-.851-3.328.502-4.404.553-.44 1.245-.682 1.951-.682.961 0 1.855.431 2.454 1.183l1.51 1.898v-7.247c0-1.728 1.406-3.134 3.134-3.134s3.134 1.406 3.134 3.134v7.247l1.509-1.898c.599-.752 1.493-1.183 2.454-1.183.705 0 1.398.242 1.95.682 1.352 1.076 1.577 3.051.502 4.404l-6.416 8.066v5.299l1.985-1.941c.841-.821 1.951-1.273 3.128-1.273 1.211 0 2.344.474 3.19 1.335l.319.325c.814.828 1.269 1.923 1.283 3.085l.039 3.499 3.617-3.617 1.166-10.24c.181-1.585 1.519-2.78 3.112-2.78.118 0 .237.007.357.02.832.095 1.577.508 2.099 1.163.521.655.756 1.474.661 2.306l-.275 2.41 5.125-5.125c.591-.592 1.378-.918 2.216-.918s1.625.326 2.216.918c1.221 1.222 1.221 3.21 0 4.432l-5.125 5.124 2.41-.275c.121-.014.24-.02.357-.02 1.594 0 2.931 1.195 3.112 2.779.095.832-.14 1.651-.661 2.306s-1.266 1.068-2.098 1.163l-10.24 1.167-3.617 3.617 3.498.039c1.162.013 2.258.469 3.086 1.283l.325.32c1.755 1.724 1.783 4.558.062 6.318l-1.941 1.985h5.299l8.065-6.416c.553-.44 1.245-.682 1.95-.682.962 0 1.856.431 2.454 1.183 1.075 1.352.85 3.328-.502 4.404l-1.898 1.51h7.247c1.728 0 3.134 1.406 3.134 3.134s-1.406 3.134-3.134 3.134h-7.247l1.898 1.51c.655.521 1.068 1.266 1.163 2.098s-.14 1.651-.661 2.306c-.598.752-1.493 1.183-2.454 1.183-.705 0-1.397-.242-1.949-.681l-8.066-6.416h-5.195l1.889 1.932c1.414 1.446 1.828 3.588 1.054 5.457-.773 1.869-2.58 3.091-4.604 3.114l-2.883.032 3.801 3.801 10.24 1.166c.832.095 1.577.508 2.097 1.163.521.655.756 1.474.661 2.306-.18 1.584-1.518 2.78-3.112 2.78-.118 0-.237-.007-.357-.02l-2.41-.275 5.124 5.124c.592.592.918 1.379.918 2.216s-.326 1.624-.918 2.217c-.591.591-1.378.918-2.216.918s-1.625-.326-2.217-.919l-5.124-5.124.275 2.41c.195 1.717-1.043 3.273-2.759 3.469-.121.014-.24.02-.357.02-1.594 0-2.932-1.195-3.112-2.78l-1.166-10.24-3.695-3.695-.029 2.596c-.027 2.439-2.034 4.423-4.473 4.423l-.494-.004c-1.161-.01-2.258-.462-3.088-1.274l-2.556-2.499v5.297l6.416 8.066c1.075 1.353.85 3.328-.502 4.404-.553.44-1.245.682-1.95.682-.961 0-1.856-.431-2.454-1.183l-1.51-1.898v7.247c.003 1.724-1.403 3.13-3.131 3.13zm7.519-30.227.056-4.962-4.441-4.441v5.116c.016.015 4.385 4.287 4.385 4.287zm-14.931 0 4.278-4.183v-5.22l-4.335 4.335zm19.316-9.498c.032-.001 6.148-.07 6.148-.07l-4.172-4.267h-6.313zm-23.806-.002 4.335-4.335h-5.22l-4.183 4.278zm25.677-10.604c.015-.016 3.595-3.678 3.595-3.678l-6.058-.068-3.746 3.746zm-21.342 0-3.745-3.745-4.98.055s3.594 3.674 3.609 3.689h5.116zm4.433-4.432v-6.313l-3.57-3.491s-.069 6.131-.071 6.163zm6.268 0 3.745-3.745-.068-6.058s-3.661 3.58-3.677 3.595z" fill="#a4c9ff"/><circle cx="60.395" cy="228.961" fill="#e0ebfc" r="12.114"/><circle cx="195.905" cy="228.961" fill="#a4c9ff" r="12.114"/><circle cx="161.208" cy="204.944" fill="#e0ebfc" r="12.114"/><circle cx="95.392" cy="204.944" fill="#a4c9ff" r="12.114"/><path d="m127.452 186.296c-2.831 0-5.134-2.303-5.134-5.134v-2.552c-1.646.679-3.715.418-5.158-.729-1.072-.853-1.749-2.074-1.904-3.438s.229-2.705 1.082-3.777l5.818-7.314c-1 .622-2.155.96-3.357.97l-.454.004c-2.938 0-5.438-1.947-6.252-4.605l-.202.203-1.087 9.546c-.317 2.786-2.825 4.834-5.675 4.521-1.372-.157-2.592-.833-3.444-1.906-.303-.38-.546-.793-.728-1.229l-1.806 1.805c-.968.969-2.257 1.504-3.63 1.504-1.372 0-2.661-.534-3.631-1.504-.968-.968-1.502-2.257-1.502-3.63s.534-2.662 1.503-3.63l1.806-1.806c-1.677-.695-2.916-2.257-3.134-4.162-.319-2.813 1.708-5.362 4.52-5.683l9.547-1.087.199-.2c-2.68-.812-4.627-3.318-4.603-6.252l.005-.461c.009-1.198.348-2.353.971-3.353l-7.315 5.819c-.905.72-2.04 1.117-3.195 1.117-1.574 0-3.039-.706-4.019-1.938-.855-1.075-1.24-2.417-1.084-3.78.055-.48.175-.944.354-1.379h-2.553c-2.831 0-5.134-2.303-5.134-5.134s2.303-5.134 5.134-5.134h2.555c-.179-.436-.299-.9-.354-1.381-.156-1.364.229-2.706 1.082-3.778.979-1.231 2.443-1.938 4.019-1.938 1.155 0 2.29.396 3.195 1.116l7.563 5.981c-1.097-1.743-1.306-3.933-.495-5.89.78-1.884 2.366-3.259 4.259-3.786l-9.356-1.066c-1.361-.155-2.581-.832-3.436-1.904-.854-1.076-1.239-2.417-1.084-3.779.216-1.905 1.455-3.467 3.133-4.163l-1.805-1.806c-.971-.97-1.505-2.26-1.505-3.63s.534-2.66 1.505-3.63c.968-.969 2.257-1.504 3.63-1.504 1.372 0 2.662.535 3.632 1.505l1.807 1.807c.694-1.666 2.246-2.918 4.16-3.136 2.901-.329 5.368 1.735 5.683 4.523l1.067 9.365c.244-1.229.839-2.362 1.732-3.271l.32-.325c1.226-1.246 2.865-1.933 4.616-1.933 1.063 0 2.089.255 3.005.735v-.122l-5.981-7.519c-1.762-2.216-1.393-5.453.822-7.214 1.444-1.146 3.514-1.409 5.159-.729v-2.553c0-2.831 2.303-5.134 5.134-5.134s5.135 2.303 5.135 5.134v2.553c1.646-.68 3.717-.417 5.159.729 2.215 1.762 2.584 4.998.822 7.213l-5.981 7.52v.181c.943-.519 2.009-.794 3.113-.794 1.752 0 3.392.687 4.616 1.934l.318.324c.816.83 1.384 1.846 1.662 2.952l1.03-9.049c.32-2.789 2.844-4.839 5.683-4.521 1.361.155 2.582.831 3.437 1.904.303.38.546.793.728 1.229l1.806-1.806c.968-.969 2.257-1.504 3.63-1.504 1.372 0 2.662.535 3.632 1.505 1.999 2.001 1.999 5.257 0 7.259l-1.807 1.807c1.676.695 2.915 2.257 3.133 4.162.155 1.363-.229 2.705-1.084 3.778-.854 1.073-2.074 1.749-3.437 1.904l-9.049 1.031c1.104.278 2.121.845 2.952 1.661l.325.32c2.108 2.072 2.494 5.251 1.138 7.729h.183l7.518-5.98c.905-.72 2.04-1.117 3.195-1.117 1.575 0 3.04.707 4.02 1.939.853 1.071 1.237 2.413 1.081 3.776-.055.482-.175.946-.354 1.382h2.555c2.831 0 5.134 2.303 5.134 5.134s-2.303 5.134-5.134 5.134h-2.554c.18.436.3.9.354 1.381.156 1.361-.229 2.704-1.084 3.779-.979 1.231-2.444 1.938-4.019 1.938-1.156 0-2.291-.397-3.195-1.117l-7.594-5.98c1.047 1.856 1.212 4.121.369 6.154-.861 2.081-2.64 3.588-4.757 4.129l.144.144 9.547 1.087c1.363.156 2.583.833 3.436 1.905.854 1.075 1.239 2.417 1.084 3.778-.218 1.906-1.457 3.467-3.134 4.163l1.806 1.806c.97.969 1.504 2.258 1.504 3.63 0 1.371-.534 2.66-1.503 3.63s-2.259 1.504-3.631 1.504c-1.374 0-2.664-.535-3.633-1.506l-1.806-1.806c-.694 1.666-2.245 2.917-4.16 3.136-2.909.331-5.367-1.734-5.683-4.522l-1.088-9.544-.119-.119c-.834 2.615-3.295 4.522-6.171 4.522l-.51-.004c-1.294-.011-2.532-.401-3.581-1.116l5.935 7.46c1.762 2.216 1.393 5.453-.822 7.214-1.442 1.147-3.513 1.409-5.159.729v2.553c0 2.833-2.304 5.136-5.135 5.136zm-3.134-14.381c.221 0 .443.036.659.112.803.28 1.341 1.038 1.341 1.888v7.247c0 .625.509 1.134 1.134 1.134.626 0 1.135-.509 1.135-1.134v-7.247c0-.851.538-1.608 1.341-1.888.801-.28 1.695-.023 2.225.644l1.51 1.898c.376.473 1.117.56 1.594.181.489-.389.571-1.104.182-1.594l-6.416-8.065c-.281-.354-.435-.793-.435-1.245v-5.297c0-.805.482-1.531 1.225-1.843.74-.312 1.597-.149 2.174.413l2.556 2.499c.459.449 1.064.699 1.706.705l.493.004c1.333 0 2.443-1.097 2.458-2.446l.029-2.595c.009-.805.5-1.526 1.245-1.83.743-.303 1.6-.132 2.169.438l3.695 3.695c.32.32.521.738.573 1.188l1.167 10.24c.069.618.625 1.069 1.257.999.619-.071 1.067-.635.997-1.257l-.275-2.408c-.097-.845.353-1.659 1.118-2.028.767-.371 1.682-.214 2.283.387l5.124 5.124c.436.437 1.172.435 1.604.001.218-.218.333-.496.333-.803s-.114-.584-.332-.801l-5.124-5.125c-.602-.601-.757-1.517-.388-2.283.37-.766 1.182-1.208 2.028-1.118l2.41.275c.631.075 1.185-.383 1.255-.999.035-.305-.048-.594-.24-.835-.19-.239-.453-.385-.759-.42l-10.239-1.166c-.449-.051-.868-.253-1.188-.573l-3.801-3.8c-.569-.569-.742-1.424-.438-2.169s1.025-1.236 1.83-1.245l2.883-.033c1.221-.013 2.312-.751 2.778-1.878.468-1.129.218-2.422-.636-3.294l-1.889-1.932c-.563-.576-.726-1.432-.414-2.174.313-.742 1.039-1.224 1.844-1.224h5.195c.452 0 .891.153 1.245.435l8.065 6.416c.476.379 1.217.292 1.594-.182.191-.24.273-.528.238-.833-.034-.307-.181-.569-.421-.761l-1.897-1.51c-.666-.529-.924-1.422-.643-2.225.28-.803 1.037-1.34 1.888-1.34h7.247c.625 0 1.134-.509 1.134-1.134s-.509-1.134-1.134-1.134h-7.248c-.851 0-1.607-.538-1.888-1.34-.281-.803-.022-1.695.643-2.225l1.898-1.51c.236-.188.386-.458.42-.76s-.05-.598-.237-.833c-.381-.478-1.117-.563-1.595-.182l-8.064 6.415c-.354.282-.793.435-1.245.435h-5.3c-.805 0-1.531-.482-1.844-1.224-.312-.742-.149-1.599.414-2.174l1.94-1.985c.951-.974.937-2.54-.033-3.493l-.326-.321c-.457-.45-1.063-.701-1.706-.708l-3.498-.04c-.805-.009-1.525-.5-1.83-1.245-.304-.745-.131-1.6.438-2.169l3.617-3.616c.319-.32.738-.522 1.188-.573l10.239-1.167c.306-.035.569-.18.761-.421.19-.24.273-.528.238-.834-.07-.617-.624-1.066-1.258-.999l-2.407.274c-.853.093-1.658-.353-2.028-1.119-.369-.766-.214-1.682.388-2.283l5.125-5.124c.441-.441.441-1.162-.001-1.604-.434-.435-1.169-.435-1.603-.001l-5.126 5.126c-.602.601-1.516.758-2.283.387-.766-.369-1.214-1.183-1.118-2.027l.274-2.411c.035-.306-.048-.594-.239-.835-.191-.24-.454-.385-.759-.42-.648-.081-1.186.383-1.256 1l-1.166 10.238c-.052.45-.253.868-.573 1.188l-3.617 3.617c-.57.57-1.426.742-2.169.438-.745-.304-1.236-1.025-1.245-1.83l-.039-3.499c-.008-.642-.259-1.248-.709-1.705l-.319-.325c-.923-.939-2.552-.954-3.494-.035l-1.984 1.941c-.577.563-1.435.725-2.174.413-.742-.312-1.225-1.039-1.225-1.843v-5.299c0-.452.153-.891.435-1.245l6.416-8.066c.389-.489.308-1.204-.182-1.593-.478-.38-1.215-.294-1.595.182l-1.509 1.897c-.529.666-1.424.924-2.225.643-.803-.28-1.341-1.038-1.341-1.888v-7.247c0-.625-.509-1.134-1.135-1.134-.625 0-1.134.509-1.134 1.134v7.247c0 .851-.538 1.608-1.341 1.888-.801.281-1.694.022-2.225-.644l-1.51-1.898c-.379-.476-1.116-.562-1.595-.181-.488.389-.57 1.104-.181 1.593l6.416 8.065c.281.354.435.793.435 1.245v5.194c0 .805-.482 1.531-1.225 1.843-.739.313-1.597.15-2.174-.413l-1.878-1.836c-.939-.92-2.57-.904-3.493.034l-.319.325c-.449.458-.701 1.064-.709 1.708l-.041 3.604c-.01.805-.5 1.525-1.245 1.829-.744.305-1.601.132-2.169-.438l-3.723-3.723c-.32-.32-.521-.738-.573-1.188l-1.167-10.239c-.069-.619-.614-1.07-1.257-1-.619.07-1.067.634-.997 1.256l.275 2.408c.097.845-.353 1.659-1.118 2.028-.769.37-1.683.214-2.283-.387l-5.124-5.124c-.436-.436-1.17-.435-1.604-.001-.219.219-.334.497-.334.803s.115.584.333.802l5.124 5.125c.602.601.757 1.517.388 2.283-.37.766-1.18 1.209-2.028 1.118l-2.41-.275c-.638-.078-1.186.382-1.255.998-.035.306.048.595.24.836.189.239.452.385.758.419l10.24 1.167c.449.051.868.253 1.188.573l3.617 3.616c.569.569.742 1.424.438 2.169-.304.746-1.024 1.236-1.829 1.245l-3.042.034c-.994.01-1.885.62-2.271 1.552-.374.904-.175 1.94.51 2.639l2.271 2.321c.563.575.726 1.432.414 2.174-.313.742-1.039 1.225-1.844 1.225h-5.295c-.452 0-.892-.153-1.245-.435l-8.064-6.416c-.478-.378-1.216-.294-1.594.182-.188.236-.272.532-.238.834s.184.572.42.76l1.897 1.51c.666.529.924 1.422.643 2.225-.28.803-1.037 1.34-1.888 1.34h-7.246c-.625 0-1.134.509-1.134 1.134s.509 1.134 1.134 1.134h7.248c.851 0 1.607.538 1.889 1.341.28.803.021 1.695-.644 2.225l-1.898 1.51c-.24.191-.387.454-.421.759-.035.306.047.594.238.834.379.476 1.116.561 1.595.182l8.064-6.415c.354-.282.793-.435 1.245-.435h5.192c.805 0 1.531.482 1.844 1.224.312.742.149 1.599-.414 2.174l-2.395 2.449c-.447.459-.697 1.064-.702 1.704l-.005.462c-.012 1.355 1.086 2.475 2.446 2.49l2.701.03c.805.009 1.525.5 1.829 1.245.305.745.132 1.6-.438 2.169l-3.802 3.802c-.319.32-.738.522-1.188.573l-10.24 1.167c-.621.071-1.069.634-.998 1.256.07.616.604 1.066 1.258.998l2.407-.275c.843-.095 1.658.353 2.028 1.118.369.766.214 1.682-.388 2.283l-5.124 5.125c-.214.214-.331.498-.331.802s.117.588.331.802c.436.436 1.169.435 1.603.001l5.126-5.125c.602-.601 1.516-.757 2.283-.387.766.369 1.214 1.183 1.118 2.027l-.274 2.41c-.035.306.048.595.238.834.192.241.455.387.761.422.037.004.084.007.13.007.576 0 1.06-.433 1.125-1.006l1.166-10.24c.052-.45.253-.868.573-1.188l3.802-3.801c.57-.569 1.427-.74 2.169-.438.745.304 1.236 1.025 1.245 1.83l.03 2.702c.016 1.348 1.143 2.445 2.513 2.445l.438-.004c.643-.005 1.249-.255 1.708-.705l2.447-2.394c.575-.563 1.435-.725 2.174-.413.742.312 1.225 1.039 1.225 1.843v5.192c0 .452-.153.891-.435 1.245l-6.415 8.065c-.188.236-.272.533-.238.834s.184.571.42.759c.476.379 1.216.291 1.594-.182l1.509-1.897c.388-.484.969-.753 1.566-.753zm10.655-15.846c-.513 0-1.017-.197-1.398-.57l-4.383-4.285c-.386-.376-.604-.893-.604-1.432v-5.116c0-.809.487-1.538 1.234-1.848.749-.309 1.607-.139 2.18.434l4.441 4.441c.381.38.592.898.586 1.437l-.056 4.962c-.009.801-.495 1.519-1.234 1.825-.248.103-.509.152-.766.152zm-14.932 0c-.258 0-.518-.05-.766-.152-.739-.306-1.226-1.024-1.234-1.825l-.058-5.068c-.006-.539.205-1.057.586-1.437l4.335-4.335c.572-.573 1.43-.744 2.18-.434.747.31 1.234 1.039 1.234 1.848v5.22c0 .538-.217 1.054-.602 1.43l-4.277 4.183c-.38.373-.885.57-1.398.57zm19.319-9.498c-.53 0-1.043-.21-1.418-.586l-4.337-4.337c-.572-.572-.743-1.432-.434-2.18.31-.747 1.039-1.234 1.848-1.234h6.313c.538 0 1.054.217 1.43.602l4.173 4.267c.561.573.725 1.424.418 2.164s-1.024 1.226-1.825 1.235c0 0-5.971.067-6.138.07-.01-.001-.02-.001-.03-.001zm.488-4.337.328.328c.188-.002.4-.005.628-.007l-.313-.321zm-24.297 4.335c-.008 0-.015 0-.022 0l-5.068-.057c-.801-.009-1.519-.495-1.825-1.234-.307-.74-.143-1.591.418-2.164l4.184-4.278c.376-.385.892-.602 1.43-.602h5.22c.809 0 1.538.487 1.848 1.235.31.747.139 1.607-.434 2.179l-4.335 4.335c-.377.375-.886.586-1.416.586zm25.678-10.604h-6.209c-.809 0-1.538-.487-1.848-1.234-.31-.748-.139-1.608.434-2.18l3.745-3.746c.38-.381.889-.582 1.437-.586l6.059.068c.801.009 1.519.495 1.825 1.234s.143 1.591-.418 2.164c0 0-3.489 3.569-3.588 3.671-.378.389-.897.609-1.437.609zm-21.342 0h-5.117c-.553 0-1.081-.229-1.459-.632-.077-.078-3.579-3.659-3.579-3.659-.561-.572-.725-1.424-.418-2.164s1.024-1.226 1.825-1.235l4.98-.055c.529.003 1.057.205 1.437.585l3.745 3.745c.572.572.743 1.433.434 2.18-.31.748-1.04 1.235-1.848 1.235zm10.7-4.432c-.258 0-.518-.05-.766-.152-.747-.31-1.234-1.039-1.234-1.848v-6.209c0-.539.219-1.056.604-1.433l3.675-3.592c.573-.56 1.426-.725 2.164-.417.739.307 1.226 1.025 1.234 1.825l.067 6.058c.006.538-.205 1.056-.586 1.437l-3.745 3.746c-.382.382-.893.585-1.413.585zm-6.269 0c-.521 0-1.031-.203-1.414-.586l-3.641-3.641c-.405-.405-.617-.963-.582-1.535.001-.149.067-6.064.067-6.064.009-.801.495-1.519 1.234-1.825.742-.307 1.592-.143 2.164.418l3.569 3.491c.385.376.602.892.602 1.43v6.313c0 .809-.487 1.538-1.234 1.848-.247.101-.507.151-.765.151z" fill="#3762cc"/><circle cx="128" cy="232.348" fill="#a4c9ff" r="8.753"/><circle cx="195.81" cy="178.873" fill="#a4c9ff" r="8.753"/><circle cx="60.79" cy="178.873" fill="#e0ebfc" r="8.753"/></svg>