<svg width="516" height="378" viewBox="0 0 516 378" fill="none" xmlns="http://www.w3.org/2000/svg">
<g id="Group 2">
<g id="Cloud" filter="url(#filter0_di)">
<path d="M388.755 134.541C382.905 134.541 377.066 135.127 371.333 136.283C367.01 114.705 353.032 96.2992 333.412 86.3366C313.787 76.3739 290.679 75.956 270.707 85.2001C252.632 35.4141 197.621 9.70881 147.835 27.783C98.0491 45.861 72.3438 100.872 90.4179 150.658C46.8064 152.037 12.3569 188.131 13.0091 231.762C13.6652 275.389 49.1848 310.432 92.8197 310.502H388.755C437.342 310.502 476.736 271.112 476.736 222.522C476.736 173.931 437.342 134.541 388.755 134.541V134.541Z" fill="#D4D5D6"/>
</g>
<g id="Snow Flake" filter="url(#filter1_i)">
<path d="M193 370C196.234 370 199.152 368.051 200.391 365.059C201.629 362.07 200.941 358.633 198.656 356.344L180.312 338H201C205.418 338 209 334.418 209 330C209 325.582 205.418 322 201 322H180.312L198.656 303.656C201.688 300.516 201.645 295.527 198.559 292.441C195.473 289.355 190.484 289.312 187.344 292.344L169 310.688V290C169 285.582 165.418 282 161 282C156.582 282 153 285.582 153 290V310.688L134.656 292.344C131.516 289.312 126.527 289.355 123.441 292.441C120.355 295.527 120.312 300.516 123.344 303.656L141.688 322H121C116.582 322 113 325.582 113 330C113 334.418 116.582 338 121 338H141.688L123.344 356.344C121.266 358.352 120.43 361.324 121.164 364.125C121.895 366.922 124.078 369.105 126.875 369.836C129.672 370.57 132.648 369.734 134.656 367.656L153 349.312V370C153 374.418 156.582 378 161 378C165.418 378 169 374.418 169 370V349.312L187.344 367.656C188.844 369.156 190.879 370 193 370Z" fill="#CCFBFF"/>
</g>
<g id="Water drop" filter="url(#filter2_i)">
<path d="M355.042 320.789C349.729 337.639 327.656 348.329 310.803 343.015C293.953 337.702 281.062 315.988 286.374 299.139C293.589 276.255 346.129 230.973 346.129 230.973C346.129 230.973 362.257 297.906 355.042 320.789Z" fill="#8EC8F7"/>
</g>
</g>
<defs>
<filter id="filter0_di" x="0" y="0" width="515.736" height="340.502" filterUnits="userSpaceOnUse" color-interpolation-filters="sRGB">
<feFlood flood-opacity="0" result="BackgroundImageFix"/>
<feColorMatrix in="SourceAlpha" type="matrix" values="0 0 0 0 0 0 0 0 0 0 0 0 0 0 0 0 0 0 127 0" result="hardAlpha"/>
<feOffset dx="13" dy="4"/>
<feGaussianBlur stdDeviation="13"/>
<feComposite in2="hardAlpha" operator="out"/>
<feColorMatrix type="matrix" values="0 0 0 0 0 0 0 0 0 0 0 0 0 0 0 0 0 0 0.25 0"/>
<feBlend mode="normal" in2="BackgroundImageFix" result="effect1_dropShadow"/>
<feBlend mode="normal" in="SourceGraphic" in2="effect1_dropShadow" result="shape"/>
<feColorMatrix in="SourceAlpha" type="matrix" values="0 0 0 0 0 0 0 0 0 0 0 0 0 0 0 0 0 0 127 0" result="hardAlpha"/>
<feOffset dx="11" dy="-1"/>
<feGaussianBlur stdDeviation="11"/>
<feComposite in2="hardAlpha" operator="arithmetic" k2="-1" k3="1"/>
<feColorMatrix type="matrix" values="0 0 0 0 0 0 0 0 0 0 0 0 0 0 0 0 0 0 0.38 0"/>
<feBlend mode="normal" in2="shape" result="effect2_innerShadow"/>
</filter>
<filter id="filter1_i" x="113" y="280" width="98" height="98" filterUnits="userSpaceOnUse" color-interpolation-filters="sRGB">
<feFlood flood-opacity="0" result="BackgroundImageFix"/>
<feBlend mode="normal" in="SourceGraphic" in2="BackgroundImageFix" result="shape"/>
<feColorMatrix in="SourceAlpha" type="matrix" values="0 0 0 0 0 0 0 0 0 0 0 0 0 0 0 0 0 0 127 0" result="hardAlpha"/>
<feOffset dx="2" dy="-2"/>
<feGaussianBlur stdDeviation="2"/>
<feComposite in2="hardAlpha" operator="arithmetic" k2="-1" k3="1"/>
<feColorMatrix type="matrix" values="0 0 0 0 0.5725 0 0 0 0 0.954167 0 0 0 0 0.931267 0 0 0 0.85 0"/>
<feBlend mode="normal" in2="shape" result="effect1_innerShadow"/>
</filter>
<filter id="filter2_i" x="276" y="217" width="107.994" height="136.693" filterUnits="userSpaceOnUse" color-interpolation-filters="sRGB">
<feFlood flood-opacity="0" result="BackgroundImageFix"/>
<feBlend mode="normal" in="SourceGraphic" in2="BackgroundImageFix" result="shape"/>
<feColorMatrix in="SourceAlpha" type="matrix" values="0 0 0 0 0 0 0 0 0 0 0 0 0 0 0 0 0 0 127 0" result="hardAlpha"/>
<feOffset dx="4" dy="-3"/>
<feGaussianBlur stdDeviation="10"/>
<feComposite in2="hardAlpha" operator="arithmetic" k2="-1" k3="1"/>
<feColorMatrix type="matrix" values="0 0 0 0 0 0 0 0 0 0.362667 0 0 0 0 0.566667 0 0 0 0.57 0"/>
<feBlend mode="normal" in2="shape" result="effect1_innerShadow"/>
</filter>
</defs>
</svg>
