<svg width="516" height="492" viewBox="0 0 516 492" fill="none" xmlns="http://www.w3.org/2000/svg">
<g id="Group 2">
<g id="Moon" filter="url(#filter0_i)">
<path d="M420.246 253.48C346.968 252.683 288.226 195.983 289 126.799C289.407 73.5071 324.018 25.7818 376.497 6.15918C358.176 1.48962 339.217 -0.541446 320.253 0.122921C219.044 1.19066 137.905 79.5054 139.011 175.061C137.905 270.616 219.044 348.931 320.253 349.998C396.854 350.33 464.974 304.062 489 235.385C468.563 247.875 444.578 254.192 420.246 253.48Z" fill="#FFE96C"/>
</g>
<g id="Cloud" filter="url(#filter1_di)">
<path d="M388.755 255.541C382.905 255.541 377.066 256.127 371.333 257.283C367.01 235.705 353.032 217.299 333.412 207.337C313.787 197.374 290.679 196.956 270.707 206.2C252.632 156.414 197.621 130.709 147.835 148.783C98.0491 166.861 72.3438 221.872 90.4179 271.658C46.8064 273.037 12.3569 309.131 13.0091 352.762C13.6652 396.389 49.1848 431.432 92.8197 431.502H388.755C437.342 431.502 476.736 392.112 476.736 343.522C476.736 294.931 437.342 255.541 388.755 255.541V255.541Z" fill="#D4D5D6"/>
</g>
<g id="Water drop" filter="url(#filter2_i)">
<path d="M160.042 458.789C154.729 475.639 132.656 486.329 115.803 481.015C98.9532 475.702 86.0617 453.988 91.3743 437.139C98.5894 414.255 151.129 368.973 151.129 368.973C151.129 368.973 167.257 435.906 160.042 458.789Z" fill="#8EC8F7"/>
</g>
<g id="Water drop_2" filter="url(#filter3_i)">
<path d="M331.042 428.789C325.729 445.639 303.656 456.329 286.803 451.015C269.953 445.702 257.062 423.988 262.374 407.139C269.589 384.255 322.129 338.973 322.129 338.973C322.129 338.973 338.257 405.906 331.042 428.789Z" fill="#8EC8F7"/>
</g>
</g>
<defs>
<filter id="filter0_i" x="139" y="-13" width="367" height="363" filterUnits="userSpaceOnUse" color-interpolation-filters="sRGB">
<feFlood flood-opacity="0" result="BackgroundImageFix"/>
<feBlend mode="normal" in="SourceGraphic" in2="BackgroundImageFix" result="shape"/>
<feColorMatrix in="SourceAlpha" type="matrix" values="0 0 0 0 0 0 0 0 0 0 0 0 0 0 0 0 0 0 127 0" result="hardAlpha"/>
<feOffset dx="17" dy="-13"/>
<feGaussianBlur stdDeviation="11"/>
<feComposite in2="hardAlpha" operator="arithmetic" k2="-1" k3="1"/>
<feColorMatrix type="matrix" values="0 0 0 0 0.116667 0 0 0 0 0.105 0 0 0 0 0 0 0 0 0.24 0"/>
<feBlend mode="normal" in2="shape" result="effect1_innerShadow"/>
</filter>
<filter id="filter1_di" x="0" y="121" width="515.736" height="340.502" filterUnits="userSpaceOnUse" color-interpolation-filters="sRGB">
<feFlood flood-opacity="0" result="BackgroundImageFix"/>
<feColorMatrix in="SourceAlpha" type="matrix" values="0 0 0 0 0 0 0 0 0 0 0 0 0 0 0 0 0 0 127 0" result="hardAlpha"/>
<feOffset dx="13" dy="4"/>
<feGaussianBlur stdDeviation="13"/>
<feComposite in2="hardAlpha" operator="out"/>
<feColorMatrix type="matrix" values="0 0 0 0 0 0 0 0 0 0 0 0 0 0 0 0 0 0 0.25 0"/>
<feBlend mode="normal" in2="BackgroundImageFix" result="effect1_dropShadow"/>
<feBlend mode="normal" in="SourceGraphic" in2="effect1_dropShadow" result="shape"/>
<feColorMatrix in="SourceAlpha" type="matrix" values="0 0 0 0 0 0 0 0 0 0 0 0 0 0 0 0 0 0 127 0" result="hardAlpha"/>
<feOffset dx="11" dy="-1"/>
<feGaussianBlur stdDeviation="11"/>
<feComposite in2="hardAlpha" operator="arithmetic" k2="-1" k3="1"/>
<feColorMatrix type="matrix" values="0 0 0 0 0 0 0 0 0 0 0 0 0 0 0 0 0 0 0.38 0"/>
<feBlend mode="normal" in2="shape" result="effect2_innerShadow"/>
</filter>
<filter id="filter2_i" x="81" y="355" width="107.994" height="136.693" filterUnits="userSpaceOnUse" color-interpolation-filters="sRGB">
<feFlood flood-opacity="0" result="BackgroundImageFix"/>
<feBlend mode="normal" in="SourceGraphic" in2="BackgroundImageFix" result="shape"/>
<feColorMatrix in="SourceAlpha" type="matrix" values="0 0 0 0 0 0 0 0 0 0 0 0 0 0 0 0 0 0 127 0" result="hardAlpha"/>
<feOffset dx="4" dy="-3"/>
<feGaussianBlur stdDeviation="10"/>
<feComposite in2="hardAlpha" operator="arithmetic" k2="-1" k3="1"/>
<feColorMatrix type="matrix" values="0 0 0 0 0 0 0 0 0 0.362667 0 0 0 0 0.566667 0 0 0 0.57 0"/>
<feBlend mode="normal" in2="shape" result="effect1_innerShadow"/>
</filter>
<filter id="filter3_i" x="252" y="325" width="107.994" height="136.693" filterUnits="userSpaceOnUse" color-interpolation-filters="sRGB">
<feFlood flood-opacity="0" result="BackgroundImageFix"/>
<feBlend mode="normal" in="SourceGraphic" in2="BackgroundImageFix" result="shape"/>
<feColorMatrix in="SourceAlpha" type="matrix" values="0 0 0 0 0 0 0 0 0 0 0 0 0 0 0 0 0 0 127 0" result="hardAlpha"/>
<feOffset dx="4" dy="-3"/>
<feGaussianBlur stdDeviation="10"/>
<feComposite in2="hardAlpha" operator="arithmetic" k2="-1" k3="1"/>
<feColorMatrix type="matrix" values="0 0 0 0 0 0 0 0 0 0.362667 0 0 0 0 0.566667 0 0 0 0.57 0"/>
<feBlend mode="normal" in2="shape" result="effect1_innerShadow"/>
</filter>
</defs>
</svg>
